<svg width="24" height="24" viewBox="0 0 24 24" fill="none" xmlns="http://www.w3.org/2000/svg">
<path fill-rule="evenodd" clip-rule="evenodd" d="M16.3674 13.6034C15.9138 14.0454 15.5471 14.5686 15.2863 15.1458C15.0359 15.7267 14.9095 16.3534 14.9153 16.986V19.2013C14.9145 19.5549 14.8099 19.9004 14.6145 20.195C14.4191 20.4897 14.1415 20.7204 13.8162 20.8587C13.5934 20.9534 13.3537 21.0014 13.1116 20.9999H10.8885C10.6516 21.0019 10.4166 20.9565 10.1975 20.8664C9.97829 20.7763 9.77933 20.6433 9.61226 20.4752C9.2753 20.1369 9.08614 19.6788 9.08625 19.2013V16.986C9.08625 16.3227 8.9589 15.7107 8.70696 15.1458C8.45126 14.5674 8.08656 14.0437 7.63279 13.6034C7.04761 13.0337 6.57516 12.3586 6.24023 11.6137C5.91024 10.863 5.74322 10.0508 5.75021 9.23078C5.74625 8.1254 6.04085 7.03947 6.60291 6.08772C6.8756 5.62249 7.2009 5.20157 7.5788 4.82219C7.95684 4.4467 8.3805 4.12015 8.83985 3.8502C9.30773 3.57881 9.80883 3.36835 10.3404 3.22158C10.8814 3.07239 11.4403 2.99786 12.0015 3.00005C13.1087 2.99675 14.1966 3.29031 15.152 3.8502C16.0818 4.38867 16.8555 5.15975 17.3973 6.08772C17.9589 7.03963 18.2535 8.12545 18.25 9.23078C18.25 10.0851 18.088 10.8798 17.7613 11.6137C17.4264 12.3586 16.9539 13.0336 16.3688 13.6034H16.3674ZM13.5338 16.1538H10.4691V19.2013C10.4691 19.3135 10.5079 19.409 10.5937 19.4949C10.6317 19.5348 10.6774 19.5664 10.7282 19.5878C10.7789 19.6093 10.8335 19.6201 10.8885 19.6195H13.1116C13.1667 19.6201 13.2213 19.6094 13.2721 19.588C13.3228 19.5665 13.3686 19.5348 13.4065 19.4949C13.4465 19.4573 13.4782 19.4117 13.4996 19.3612C13.5211 19.3107 13.5318 19.2562 13.5311 19.2013V16.1538H13.5338Z" fill="currentColor"/>
</svg>
