<svg width="16" height="16" viewBox="0 0 16 16" fill="none" xmlns="http://www.w3.org/2000/svg">
<path d="M8.00078 11C7.83059 10.9991 7.66272 10.9604 7.50935 10.8866C7.35599 10.8128 7.22098 10.7058 7.11411 10.5733L4.30745 7.17333C4.14344 6.96865 4.04024 6.722 4.00959 6.46151C3.97894 6.20102 4.02209 5.93716 4.13411 5.7C4.22496 5.49388 4.37323 5.31828 4.56119 5.19415C4.74916 5.07002 4.96888 5.00262 5.19411 5H10.8074C11.0327 5.00262 11.2524 5.07002 11.4404 5.19415C11.6283 5.31828 11.7766 5.49388 11.8674 5.7C11.9795 5.93716 12.0226 6.20102 11.992 6.46151C11.9613 6.722 11.8581 6.96865 11.6941 7.17333L8.88745 10.5733C8.78058 10.7058 8.64557 10.8128 8.4922 10.8866C8.33884 10.9604 8.17097 10.9991 8.00078 11Z" fill="currentColor"/>
</svg>
