<svg width="24" height="24" viewBox="0 0 24 24" fill="none" xmlns="http://www.w3.org/2000/svg">
<path d="M17.5129 6.38258C17.7894 6.13448 18.1573 5.99732 18.5391 6.00004C18.9208 6.00276 19.2865 6.14516 19.559 6.39718C19.8315 6.6492 19.9894 6.99113 19.9995 7.35082C20.0096 7.71052 19.871 8.05984 19.6131 8.32508L11.7817 17.5565C11.647 17.6933 11.4845 17.803 11.3038 17.8791C11.1232 17.9553 10.9281 17.9963 10.7302 17.9998C10.5323 18.0032 10.3357 17.969 10.1522 17.8992C9.96861 17.8294 9.80188 17.7255 9.66194 17.5935L4.46852 12.6985C4.3239 12.5714 4.20789 12.4183 4.12744 12.2481C4.04698 12.0779 4.00372 11.8941 4.00023 11.7078C3.99674 11.5215 4.0331 11.3365 4.10714 11.1637C4.18117 10.9909 4.29137 10.834 4.43116 10.7022C4.57094 10.5705 4.73745 10.4666 4.92074 10.3968C5.10404 10.3271 5.30037 10.2928 5.49803 10.2961C5.69568 10.2994 5.89061 10.3401 6.07118 10.416C6.25175 10.4918 6.41427 10.6011 6.54903 10.7375L10.659 14.6095L17.4756 6.42328C17.4879 6.40904 17.501 6.39545 17.5149 6.38258H17.5129Z" fill="currentColor" />
</svg>
