<svg width="24" height="24" viewBox="0 0 24 24" fill="none" xmlns="http://www.w3.org/2000/svg">
<path d="M12.1055 4.70031C12.5629 4.2519 13.1833 4 13.8301 4C14.4769 4 15.0973 4.2519 15.5547 4.70031L20.2858 9.33937C20.7431 9.78792 21 10.3962 21 11.0304C21 11.6647 20.7431 12.273 20.2858 12.7215L13.5776 19.2992C13.1203 19.7478 12.4999 19.9999 11.853 20H8.48797C7.84108 19.9999 7.22072 19.7478 6.76337 19.2992L3.7142 16.3093C3.2569 15.8608 3 15.2525 3 14.6183C3 13.984 3.2569 13.3757 3.7142 12.9272L12.1043 4.70031H12.1055ZM12.9105 18.2623L6.45479 11.9322L4.57773 13.7727C4.34907 13.997 4.22062 14.3011 4.22062 14.6183C4.22062 14.9354 4.34907 15.2395 4.57773 15.4638L7.62689 18.4536C7.85557 18.6779 8.16574 18.804 8.48919 18.8041H11.8542C12.1777 18.804 12.4879 18.6779 12.7166 18.4536L12.9117 18.2623H12.9105Z" fill="currentColor" />
</svg>
