<svg width="16" height="16" viewBox="0 0 16 16" fill="none" xmlns="http://www.w3.org/2000/svg">
<path d="M3.5 2C3.10218 2 2.72064 2.15804 2.43934 2.43934C2.15804 2.72064 2 3.10218 2 3.5V12.5C2 12.8978 2.15804 13.2794 2.43934 13.5607C2.72064 13.842 3.10218 14 3.5 14H5C5.39783 14 5.77936 13.842 6.06066 13.5607C6.34196 13.2794 6.5 12.8978 6.5 12.5V3.5C6.5 3.10218 6.34196 2.72064 6.06066 2.43934C5.77936 2.15804 5.39783 2 5 2H3.5Z" fill="currentColor" />
<path d="M11 2C10.6022 2 10.2206 2.15804 9.93934 2.43934C9.65804 2.72064 9.5 3.10218 9.5 3.5V12.5C9.5 12.8978 9.65804 13.2794 9.93934 13.5607C10.2206 13.842 10.6022 14 11 14H12.5C12.8978 14 13.2794 13.842 13.5607 13.5607C13.842 13.2794 14 12.8978 14 12.5V3.5C14 3.10218 13.842 2.72064 13.5607 2.43934C13.2794 2.15804 12.8978 2 12.5 2H11Z" fill="currentColor" />
</svg>
