<svg width="24" height="24" viewBox="0 0 24 24" fill="none" xmlns="http://www.w3.org/2000/svg">
<path d="M20.3297 6.7059L17.2472 3.61223C16.8449 3.23297 16.3177 3.01535 15.766 3.00078C15.2142 2.98621 14.6764 3.1757 14.2547 3.5332L4.12973 13.6949C3.76609 14.0629 3.53967 14.5453 3.48848 15.061L3.00473 19.7693C2.98957 19.9347 3.01095 20.1014 3.06735 20.2575C3.12374 20.4136 3.21376 20.5553 3.33098 20.6726C3.4361 20.7772 3.56077 20.86 3.69783 20.9162C3.8349 20.9724 3.98167 21.0008 4.12973 21H4.23098L8.92223 20.5709C9.43612 20.5196 9.91677 20.2923 10.2835 19.9274L20.4085 9.76569C20.8015 9.34902 21.0138 8.793 20.9991 8.21946C20.9843 7.64592 20.7436 7.10164 20.3297 6.7059ZM16.5047 10.477L13.4897 7.45108L15.6835 5.19293L18.7547 8.27531L16.5047 10.477Z" fill="currentColor" />
</svg>
