<svg width="16" height="16" viewBox="0 0 16 16" fill="none" xmlns="http://www.w3.org/2000/svg">
<path d="M4.7567 2.1909C4.53738 2.06491 4.28899 1.99909 4.03642 2.00001C3.78384 2.00093 3.53593 2.06857 3.31752 2.19615C3.09912 2.32373 2.91788 2.50678 2.79195 2.72696C2.66602 2.94714 2.59983 3.19672 2.6 3.45072V12.5493C2.59983 12.8033 2.66602 13.0529 2.79195 13.273C2.91788 13.4932 3.09912 13.6763 3.31752 13.8039C3.53593 13.9314 3.78384 13.9991 4.03642 14C4.28899 14.0009 4.53738 13.9351 4.7567 13.8091L12.6742 9.25837C12.8947 9.13152 13.078 8.94833 13.2054 8.72736C13.3329 8.50638 13.4 8.25546 13.4 8C13.4 7.74454 13.3329 7.49362 13.2054 7.27264C13.078 7.05167 12.8947 6.86848 12.6742 6.74163L4.7567 2.1909Z" fill="currentColor" />
</svg>
