<svg width="24" height="24" viewBox="0 0 24 24" fill="none" xmlns="http://www.w3.org/2000/svg">
<path d="M11.9853 4.00001C9.84761 4.00385 7.90667 4.84624 6.47371 6.21566L5.32164 5.06359C4.8339 4.57585 4 4.92127 4 5.61101V9.93549C4 10.3631 4.34661 10.7097 4.77419 10.7097H9.09867C9.78841 10.7097 10.1338 9.87578 9.64612 9.38804L8.29935 8.04127C9.29496 7.10904 10.5833 6.59266 11.9519 6.58085C14.9325 6.55511 17.4449 8.9672 17.4191 12.0467C17.3947 14.968 15.0263 17.4194 12 17.4194C10.6733 17.4194 9.41945 16.9459 8.43129 16.0788C8.27829 15.9446 8.04722 15.9528 7.90329 16.0967L6.62387 17.3761C6.46671 17.5333 6.47448 17.7895 6.63942 17.9385C8.058 19.2198 9.93787 20 12 20C16.4182 20 20 16.4183 20 12.0001C20 7.58688 16.3985 3.99211 11.9853 4.00001Z" fill="currentColor" />
</svg>
