<svg width="24" height="24" viewBox="0 0 24 24" fill="none" xmlns="http://www.w3.org/2000/svg">
<path d="M12.4181 9C10.0412 9 7.88846 9.86625 6.22908 11.275L4.53381 9.62125C3.96872 9.07 3 9.455 3 10.2337V15.125C3 15.6062 3.40363 16 3.89697 16H8.911C9.7093 16 10.1129 15.055 9.54785 14.5037L7.83464 12.8325C9.08143 11.8175 10.6691 11.1875 12.4271 11.1875C15.2615 11.1875 17.7102 12.7975 18.8763 15.125C19.1185 15.615 19.6925 15.86 20.2217 15.685C20.8586 15.4838 21.1815 14.775 20.8945 14.18C19.3517 11.1175 16.1405 9 12.4181 9Z" fill="currentColor" />
</svg>
